<svg id="Layer_1" data-name="Layer 1" xmlns="http://www.w3.org/2000/svg" width="140" height="62" viewBox="0 0 216.88 93.93"><defs><style>.cls-1{fill:#d52b1e;}.cls-2{fill:#818a8f;}</style></defs><title>Artboard 1</title><path class="cls-1" d="M.06,0V66.49h66.5V0ZM46.79,52.85H20.39v-41h8.92V45.45H46.79Z"/><path class="cls-1" d="M188.09,35.54c-1.54-.86-2.95-1-6.64-1h-3.77V46.41H181c3.2,0,5.34-.11,6.81-1a5.28,5.28,0,0,0,3-5.24A5.08,5.08,0,0,0,188.09,35.54Z"/><path class="cls-1" d="M187,27.5a5.25,5.25,0,0,0,2.82-4.67A4.09,4.09,0,0,0,187.52,19c-1.19-.69-2.63-.89-5.58-.89h-4.27V28.53h3.58C184,28.53,185.64,28.25,187,27.5Z"/><path class="cls-1" d="M150.35,0V66.49h66.5V0Zm33.38,52.86H169v-41h14.25c5,0,7.83.55,10.42,2a8.9,8.9,0,0,1,4.46,7.87,9,9,0,0,1-2.77,6.63,10.39,10.39,0,0,1-5.7,2.53c6.33,1,9.82,4.72,9.82,10.06C199.51,48.78,193.55,52.86,183.73,52.86Z"/><path class="cls-1" d="M177.68,18.08h4.27c2.95,0,4.39.2,5.58.89a4.09,4.09,0,0,1,2.26,3.86A5.25,5.25,0,0,1,187,27.5c-1.31.75-2.95,1-5.7,1h-3.58Zm10.15,27.37c-1.47.86-3.62,1-6.81,1h-3.34V34.49h3.77c3.69,0,5.1.18,6.64,1a5.08,5.08,0,0,1,2.76,4.67A5.28,5.28,0,0,1,187.83,45.45Z"/><path class="cls-1" d="M75.21,0V66.49h66.5V0Zm45.9,18.9H104.32v9.8H120v7H104.32V52.85H95.39v-41h25.72Z"/><path class="cls-2" d="M0,93.6V80H2.16V91.82H8V93.6Z"/><path class="cls-2" d="M15.28,93.88c-3.71,0-6.37-2.9-6.37-7s2.84-7.22,6.73-7.22c3.71,0,6.37,2.86,6.37,6.9S19.11,93.88,15.28,93.88Zm4.49-7.35c0-3-1.94-5-4.37-5s-4.26,2.18-4.26,5.12c0,3.1,1.82,5.33,4.33,5.33s4.31-2.1,4.31-5.06Z"/><path class="cls-2" d="M33.68,93.6,26.84,83.54V93.6h-2V80H27l6.88,10.12V80h1.94V93.6Z"/><path class="cls-2" d="M48.71,92c-1.53,1.16-3,1.55-6.08,1.55H39.2V80H43a14.86,14.86,0,0,1,3.74.37,6.34,6.34,0,0,1,4.59,6.33A6.7,6.7,0,0,1,48.71,92Zm-.92-8.86c-1-1.1-2.18-1.51-4.39-1.51h-2V91.84h2c3.55,0,5.75-2,5.75-5.14A5,5,0,0,0,47.79,83.19Z"/><path class="cls-2" d="M59.85,93.88c-3.71,0-6.37-2.9-6.37-7s2.84-7.22,6.73-7.22c3.71,0,6.37,2.86,6.37,6.9S63.69,93.88,59.85,93.88Zm4.49-7.35c0-3-1.94-5-4.37-5s-4.27,2.18-4.27,5.12c0,3.1,1.82,5.33,4.33,5.33s4.31-2.1,4.31-5.06Z"/><path class="cls-2" d="M78.25,93.6,71.42,83.54V93.6h-2V80h2.12l6.88,10.12V80h1.94V93.6Z"/><path class="cls-2" d="M91.83,81.68v4h5.33v1.65H91.83V93.6H89.67V80h7.82v1.7Z"/><path class="cls-2" d="M100,93.6V80h2.18V93.6Z"/><path class="cls-2" d="M113.25,93.6l-2.55-4.94A1.83,1.83,0,0,0,109,87.54h-1.22V93.6h-2.16V80h3.78a14.17,14.17,0,0,1,2.12.12,3.29,3.29,0,0,1,3.08,3.35,3.52,3.52,0,0,1-3.1,3.45,2,2,0,0,1,1.33,1.1l3,5.59Zm-1.63-11.47a3.05,3.05,0,0,0-2.12-.51h-1.76V86h1.65c1.86,0,2.94-.86,2.94-2.31A2,2,0,0,0,111.61,82.13Z"/><path class="cls-2" d="M117.95,93.6,118,80h8v1.7h-5.82v4h5.51v1.65h-5.51v4.51h6.2V93.6Z"/><path class="cls-2" d="M139.28,93.6h-4.2V80h3.86a6.71,6.71,0,0,1,3.47.65,2.91,2.91,0,0,1,1.49,2.61,3.09,3.09,0,0,1-.9,2.21,3.37,3.37,0,0,1-1.55.86c2,.33,3.12,1.53,3.12,3.29C144.56,92,142.5,93.6,139.28,93.6Zm-.29-12h-1.78v4h1.49a3.94,3.94,0,0,0,1.94-.35,2.08,2.08,0,0,0,1.08-1.82C141.73,82.21,140.85,81.62,139,81.62Zm2.22,6a4.19,4.19,0,0,0-2.31-.39h-1.69v4.71h1.61a4.67,4.67,0,0,0,2.29-.43,2.33,2.33,0,0,0,1.14-2.06A2,2,0,0,0,141.22,87.6Z"/><path class="cls-2" d="M155,93.6l-2.55-4.94a1.83,1.83,0,0,0-1.73-1.12h-1.22V93.6h-2.16V80h3.78a14.2,14.2,0,0,1,2.12.12,3.29,3.29,0,0,1,3.08,3.35,3.53,3.53,0,0,1-3.1,3.45,2,2,0,0,1,1.33,1.1l3,5.59Zm-1.63-11.47a3.06,3.06,0,0,0-2.12-.51h-1.76V86h1.65c1.86,0,2.94-.86,2.94-2.31A2,2,0,0,0,153.37,82.13Z"/><path class="cls-2" d="M159.67,93.6V80h2.18V93.6Z"/><path class="cls-2" d="M172,93.93c-4.29,0-7.29-2.86-7.29-6.94s3.3-7.24,7.84-7.24a9.42,9.42,0,0,1,4,.76L176,82.09a8.24,8.24,0,0,0-3.24-.61c-3.49,0-5.8,2.16-5.8,5.41a5.08,5.08,0,0,0,5.35,5.31,6.14,6.14,0,0,0,2.26-.39V87.09h2.12v5.82A10.21,10.21,0,0,1,172,93.93Z"/><path class="cls-2" d="M189.34,93.6l-1.8-4.49h-5.47l-1.8,4.49h-2.12L183.76,80H186l5.63,13.61Zm-4.55-11.45-2.1,5.37h4.25Z"/><path class="cls-2" d="M203.13,92c-1.53,1.16-3,1.55-6.08,1.55h-3.43V80h3.8a14.87,14.87,0,0,1,3.74.37,6.34,6.34,0,0,1,4.59,6.33A6.7,6.7,0,0,1,203.13,92Zm-.92-8.86c-1-1.1-2.18-1.51-4.39-1.51h-2V91.84h2c3.55,0,5.75-2,5.75-5.14A5,5,0,0,0,202.21,83.19Z"/><path class="cls-2" d="M208.51,93.6l0-13.61h8v1.7h-5.82v4h5.51v1.65h-5.51v4.51h6.21V93.6Z"/></svg>